<?xml version="1.0" encoding="utf-8"?>
<!-- Generator: Adobe Illustrator 19.1.0, SVG Export Plug-In . SVG Version: 6.00 Build 0)  -->
<!DOCTYPE svg PUBLIC "-//W3C//DTD SVG 1.1//EN" "http://www.w3.org/Graphics/SVG/1.1/DTD/svg11.dtd">
<svg version="1.1" id="Layer_1" xmlns="http://www.w3.org/2000/svg" xmlns:xlink="http://www.w3.org/1999/xlink" x="0px" y="0px"
	 width="24px" height="24px" viewBox="0 0 24 24" style="enable-background:new 0 0 24 24;" xml:space="preserve">
<style type="text/css">
	.st0{fill:#00B29F;}
	.st1{fill:#94A3AB;}
	.st2{fill:#5AAAFA;}
</style>
<g>
	<g>
		<path class="st0" d="M20.7,11.5L24,5.8L20.7,0h-6.6l-3.3,5.8l0,0c0.9-0.4,1.9-0.7,3-0.7C17.4,5.1,20.4,7.9,20.7,11.5z"/>
	</g>
	<g>
		<path class="st0" d="M19.5,10.4c-0.7-2.5-3-4.3-5.7-4.3c-0.5,0-0.9,0.1-1.4,0.2L19.5,10.4z"/>
	</g>
	<g>
		<polygon class="st0" points="19.4,11.5 11.4,6.8 14.1,11.5 		"/>
	</g>
	<g>
		<path class="st1" d="M6.8,12.1C6.8,12,6.8,12,6.8,12.1c0-2.4,1.2-4.5,3.1-5.8l0,0H3.3L0,12l0,0l3.3,5.7h6.6
			C8.1,16.5,6.8,14.4,6.8,12.1z"/>
	</g>
	<g>
		<path class="st1" d="M7.8,12C7.8,12,7.8,12,7.8,12c0,1.6,0.6,3.1,1.7,4.1v-4.1V7.9C8.5,9,7.8,10.4,7.8,12z"/>
	</g>
	<g>
		<polygon class="st1" points="10.5,7.3 10.5,12.1 10.5,16.7 13.2,12.1 13.2,12 		"/>
	</g>
	<g>
		<polygon class="st2" points="11.4,17.2 19.5,12.5 14.1,12.5 		"/>
	</g>
	<g>
		<path class="st2" d="M13.8,18.9c-1.1,0-2.1-0.3-3-0.7l0,0l3.3,5.8h6.6l3.3-5.8l-3.3-5.7C20.4,16.1,17.4,18.9,13.8,18.9z"/>
	</g>
	<g>
		<path class="st2" d="M19.5,13.7l-7.1,4.1c0.4,0.1,0.9,0.2,1.4,0.2C16.5,17.9,18.7,16.1,19.5,13.7z"/>
	</g>
</g>
</svg>
